<svg width="36" height="36" viewBox="0 0 36 36" fill="none" xmlns="http://www.w3.org/2000/svg">
<path d="M2 20.6258C2 17.0774 3.11369 14.1441 5.34107 11.8258C7.56845 9.46022 10.8105 7.85161 15.0673 7L17.3689 9.83871C12.2707 11.3054 9.72158 13.1505 9.72158 15.3742C9.72158 16.1312 9.91957 16.6989 10.3155 17.0774C10.7115 17.4559 11.4292 17.8344 12.4687 18.2129C14.894 19.2538 16.1067 20.886 16.1067 23.1097C16.1067 24.7183 15.4633 26.114 14.1763 27.2968C12.9389 28.4323 11.3797 29 9.49884 29C7.32096 29 5.51431 28.2194 4.07889 26.6581C2.69296 25.0495 2 23.0387 2 20.6258ZM18.6311 20.6258C18.6311 17.0774 19.7448 14.1441 21.9722 11.8258C24.1995 9.46022 27.4664 7.85161 31.7726 7L34 9.83871C28.9513 11.3054 26.4269 13.1505 26.4269 15.3742C26.4269 16.1312 26.6002 16.6989 26.9466 17.0774C27.3426 17.4559 28.0603 17.8344 29.0998 18.2129C31.5251 19.2538 32.7378 20.886 32.7378 23.1097C32.7378 24.7183 32.0944 26.114 30.8074 27.2968C29.57 28.4323 28.0108 29 26.1299 29C23.9521 29 22.1454 28.2194 20.71 26.6581C19.3241 25.0495 18.6311 23.0387 18.6311 20.6258Z" fill="#DD3333"/>
</svg>
